<svg xmlns="http://www.w3.org/2000/svg" xmlns:xlink="http://www.w3.org/1999/xlink" viewBox="0 0 195.59 195.59"><defs><style>.cls-1,.cls-5,.cls-6{fill:none;}.cls-2{isolation:isolate;}.cls-3{clip-path:url(#clip-path);}.cls-4{fill:#bb368c;}.cls-4,.cls-5{mix-blend-mode:multiply;}.cls-6{stroke:#a43446;stroke-miterlimit:10;stroke-width:12.6px;}</style><clipPath id="clip-path"><circle class="cls-1" cx="97.75" cy="97.59" r="86.63"/></clipPath></defs><title>icon</title><g class="cls-2"><g id="Lager_1" data-name="Lager 1"><g class="cls-3"><image width="1239" height="2378" transform="translate(-439.38 -180.59)" xlink:href="background.png"/></g><g class="cls-3"><path class="cls-4" d="M190,121c2.79,0,7.81.52,8.93,1s1.67,1.31-2.79,2.63-5.3,3.67-6.42,5.51c-1,1.65-3.58,4.79-5.31,7.51a2.14,2.14,0,0,1-1.24.95c-2.14.52-4.55,4.07-1.54,3.36a33.28,33.28,0,0,0,11.16-4.73c3.88-2.61,6.94-3.92,2,2.26l-.18.2c-3.87,3.88-7.19,6-10.23,6.47s-9.48,1.31-8.92,2.63,1.11,3.15,5.57,1.57,9.07-4.89,4.4,1.55a2.32,2.32,0,0,1-.49.5,16.21,16.21,0,0,1-8.65,2.68c-1.67,0-6.13-.53-7,0s-2.49,19.08-20.91,23.92L122.77,188c-.09-4.85-37-.74-37.07-.84-1.67-10,5-33.66,6.71-53.75a23.72,23.72,0,0,1,.8-3.21c.27-2.36,0-5-5.3-2.63a31.67,31.67,0,0,1-13.39,2.63c-3.35,0-8.37-.52-11.16,2.1s-3.07,4.73-6.69,5-6.42.53-8.37.53-6.69-2.63-6.69-6-3.35-5.26-3.35-6.57a10.47,10.47,0,0,1,3.07-6.3c2.23-2.37,13.94-15.23,19.52-22.32s6.6-9.09,7.44-10.66,2.23-1.58,1.39-4.2L44.53,39.5a8.74,8.74,0,0,1-.35-1.86c-.19-1.08.61-4.37,2.91-2.21C49.83,38,70.9,64.84,73.91,68.61a2.08,2.08,0,0,0,.84.63c1.28.53,4.51,1.68,4.51-.22,0-2.36.28-6.57,3.07-7.88s2.79-.52,1.39,2.63-1.67,6.3-.28,7.88,2.24,1,3.07-3.16c.1-.47.21-.91.33-1.31a2.13,2.13,0,0,1,4.13.21v0c.28,1.84,3.35,4.21,7.26,4.21s7.53-2.63,11.15-3.42,6.7-1.84,7.81-1,.56,2.63-.55,3.94-.84,1.58,5,1.31,8.92-1.31,10-1.31,3.06,2.1,2.51,3.15,2.51-.26,5.3-.26H149s0,1.58-4.46,1.58S135,76.9,141.18,78s23.15,3.41,29.29,7.09,12.83,11.29,13.38,13.13,1.68,5.52.84,6.83-2.79-1.84-3.07-2.89-2-2.36-2.79-3.68-2-.52,0,3.42,3.35,6.56,3.91,7.35.84,4.47,4.74,4.2,5,0,2.51,2.63Z"/></g><circle class="cls-5" cx="97.75" cy="97.59" r="86.63"/><circle class="cls-6" cx="97.75" cy="97.59" r="90.97"/></g></g></svg>